<svg xmlns="http://www.w3.org/2000/svg" version="1.0" preserveAspectRatio="xMidYMid meet" viewBox="68.91 87.42 132.59 148.42">

<g transform="translate(0.000000,350.000000) scale(0.100000,-0.100000)" fill="#000000" stroke="none">
<path d="M1232 2620 c-166 -21 -296 -73 -373 -150 -141 -141 -141 -346 0 -472 92 -83 197 -120 571 -202 187 -41 254 -65 308 -111 57 -49 80 -112 63 -173 -23 -88 -88 -144 -211 -183 -86 -28 -285 -31 -378 -6 -179 48 -281 141 -307 281 l-8 38 -101 -7 c-55 -4 -103 -9 -105 -11 -10 -10 21 -132 46 -183 34 -70 120 -162 189 -202 77 -44 178 -76 279 -90 116 -15 360 -6 439 16 157 44 281 137 338 253 29 59 33 76 33 152 0 74 -4 92 -30 144 -31 61 -90 121 -164 164 -69 41 -190 76 -425 127 -120 25 -248 57 -283 70 -102 37 -143 86 -143 172 0 89 70 157 193 190 85 23 292 23 367 0 115 -34 202 -118 217 -210 3 -20 10 -40 15 -43 5 -3 54 -3 109 1 112 8 112 7 85 96 -39 127 -113 210 -240 269 -126 60 -330 89 -484 70z"/>
</g>
</svg>